<svg width="500" height="500" viewBox="0 0 500 500" fill="none" xmlns="http://www.w3.org/2000/svg">
<rect width="500" height="500" rx="61.9835" fill="white"/>
<path d="M152.529 361.091C152.749 361.063 152.901 360.856 152.983 360.471C153.066 360.085 152.915 359.451 152.529 358.57C152.391 358.212 152.102 357.551 151.661 356.586C151.22 355.622 150.697 354.465 150.091 353.115C149.512 351.766 148.879 350.361 148.19 348.9C147.529 347.413 146.882 345.994 146.248 344.644C145.642 343.267 145.091 342.069 144.595 341.049C144.099 340.002 143.741 339.272 143.521 338.859C143.052 337.978 142.625 337.344 142.24 336.958C141.882 336.545 141.606 336.325 141.413 336.297H150.793C150.628 336.297 150.518 336.49 150.463 336.876C150.408 337.261 150.518 337.923 150.793 338.859C150.931 339.245 151.152 339.878 151.455 340.76C151.785 341.642 152.171 342.688 152.612 343.9C153.052 345.085 153.534 346.366 154.058 347.743C154.581 349.093 155.105 350.457 155.628 351.834C156.179 353.212 156.689 354.507 157.157 355.719H157.198C157.667 354.479 158.176 353.17 158.727 351.793C159.278 350.388 159.815 348.997 160.339 347.62C160.862 346.242 161.358 344.961 161.826 343.777C162.295 342.564 162.694 341.518 163.025 340.636C163.355 339.754 163.576 339.135 163.686 338.777C163.989 337.867 164.113 337.234 164.058 336.876C164.003 336.49 163.879 336.297 163.686 336.297H172.777C172.612 336.297 172.35 336.49 171.992 336.876C171.661 337.234 171.275 337.854 170.835 338.735C170.642 339.121 170.311 339.823 169.843 340.843C169.375 341.862 168.824 343.06 168.19 344.438C167.556 345.788 166.895 347.206 166.207 348.694C165.545 350.154 164.912 351.573 164.306 352.95C163.7 354.3 163.163 355.485 162.694 356.504C162.253 357.496 161.95 358.184 161.785 358.57C161.427 359.451 161.275 360.085 161.331 360.471C161.413 360.856 161.565 361.063 161.785 361.091H152.529ZM175.268 361.091C175.461 361.091 175.64 360.912 175.806 360.553C175.998 360.168 176.095 359.52 176.095 358.611V338.777C176.095 337.895 175.998 337.261 175.806 336.876C175.64 336.49 175.461 336.297 175.268 336.297H183.244C183.051 336.297 182.858 336.49 182.665 336.876C182.472 337.234 182.376 337.881 182.376 338.818V358.611C182.376 359.493 182.472 360.126 182.665 360.512C182.858 360.898 183.051 361.091 183.244 361.091H175.268ZM196.837 361.091C197.058 361.063 197.209 360.856 197.292 360.471C197.375 360.085 197.223 359.451 196.837 358.57C196.7 358.212 196.41 357.551 195.97 356.586C195.529 355.622 195.005 354.465 194.399 353.115C193.821 351.766 193.187 350.361 192.499 348.9C191.837 347.413 191.19 345.994 190.556 344.644C189.95 343.267 189.399 342.069 188.904 341.049C188.408 340.002 188.05 339.272 187.829 338.859C187.361 337.978 186.934 337.344 186.548 336.958C186.19 336.545 185.915 336.325 185.722 336.297H195.102C194.937 336.297 194.826 336.49 194.771 336.876C194.716 337.261 194.826 337.923 195.102 338.859C195.24 339.245 195.46 339.878 195.763 340.76C196.094 341.642 196.479 342.688 196.92 343.9C197.361 345.085 197.843 346.366 198.366 347.743C198.89 349.093 199.413 350.457 199.937 351.834C200.488 353.212 200.997 354.507 201.466 355.719H201.507C201.975 354.479 202.485 353.17 203.036 351.793C203.587 350.388 204.124 348.997 204.647 347.62C205.171 346.242 205.667 344.961 206.135 343.777C206.603 342.564 207.003 341.518 207.333 340.636C207.664 339.754 207.884 339.135 207.994 338.777C208.297 337.867 208.421 337.234 208.366 336.876C208.311 336.49 208.187 336.297 207.994 336.297H217.085C216.92 336.297 216.658 336.49 216.3 336.876C215.97 337.234 215.584 337.854 215.143 338.735C214.95 339.121 214.62 339.823 214.151 340.843C213.683 341.862 213.132 343.06 212.499 344.438C211.865 345.788 211.204 347.206 210.515 348.694C209.854 350.154 209.22 351.573 208.614 352.95C208.008 354.3 207.471 355.485 207.003 356.504C206.562 357.496 206.259 358.184 206.094 358.57C205.735 359.451 205.584 360.085 205.639 360.471C205.722 360.856 205.873 361.063 206.094 361.091H196.837ZM232.511 361.504C229.728 361.504 227.442 361.063 225.651 360.181C223.861 359.3 222.538 358.033 221.684 356.38C220.83 354.699 220.403 352.702 220.403 350.388V338.735C220.403 337.854 220.307 337.234 220.114 336.876C219.949 336.49 219.77 336.297 219.577 336.297H227.511C227.318 336.325 227.125 336.518 226.932 336.876C226.767 337.234 226.684 337.854 226.684 338.735V350.305C226.684 352.069 226.932 353.432 227.428 354.396C227.924 355.361 228.613 356.022 229.494 356.38C230.376 356.738 231.395 356.917 232.552 356.917H233.007C233.916 356.917 234.715 356.821 235.403 356.628C236.12 356.435 236.712 356.104 237.18 355.636C237.676 355.168 238.048 354.507 238.296 353.653C238.571 352.771 238.709 351.655 238.709 350.305V338.735C238.709 337.854 238.613 337.234 238.42 336.876C238.255 336.49 238.076 336.297 237.883 336.297H245.817C245.624 336.325 245.431 336.531 245.238 336.917C245.073 337.275 244.99 337.895 244.99 338.777V350.388C244.99 352.702 244.549 354.699 243.668 356.38C242.814 358.033 241.492 359.3 239.701 360.181C237.938 361.063 235.679 361.504 232.924 361.504H232.511ZM273.279 361.504C270.276 361.504 267.618 361.366 265.304 361.091C262.99 360.815 261.323 360.54 260.304 360.264V359.024L259.477 353.777C260.001 354.217 260.868 354.686 262.081 355.181C263.293 355.677 264.849 356.104 266.75 356.462C268.651 356.793 270.855 356.958 273.362 356.958C274.904 356.958 276.089 356.862 276.915 356.669C277.742 356.449 278.306 356.146 278.609 355.76C278.912 355.374 279.064 354.92 279.064 354.396C279.064 353.735 278.844 353.226 278.403 352.867C277.962 352.482 277.163 352.165 276.006 351.917C274.877 351.669 273.265 351.407 271.171 351.132C268.665 350.801 266.571 350.347 264.89 349.768C263.21 349.19 261.957 348.377 261.13 347.33C260.304 346.256 259.89 344.837 259.89 343.074C259.89 341.642 260.262 340.388 261.006 339.314C261.75 338.239 262.948 337.399 264.601 336.793C266.254 336.187 268.444 335.884 271.171 335.884C274.036 335.884 276.488 336.022 278.527 336.297C280.565 336.573 281.97 336.848 282.742 337.124V338.363L283.981 342.909C283.293 342.551 282.301 342.179 281.006 341.793C279.711 341.407 278.21 341.091 276.502 340.843C274.794 340.567 272.948 340.429 270.965 340.429C269.725 340.429 268.761 340.54 268.072 340.76C267.384 340.953 266.888 341.242 266.585 341.628C266.309 341.986 266.171 342.44 266.171 342.991C266.171 343.653 266.419 344.19 266.915 344.603C267.439 344.989 268.279 345.305 269.436 345.553C270.593 345.801 272.149 346.035 274.105 346.256C277.108 346.586 279.422 347.082 281.047 347.743C282.673 348.405 283.788 349.259 284.395 350.305C285.028 351.325 285.345 352.564 285.345 354.024C285.345 355.292 285.111 356.407 284.642 357.372C284.174 358.308 283.444 359.08 282.452 359.686C281.488 360.292 280.235 360.746 278.692 361.049C277.177 361.352 275.373 361.504 273.279 361.504ZM289.066 361.091C289.259 361.091 289.452 360.898 289.645 360.512C289.838 360.126 289.934 359.493 289.934 358.611V338.777C289.934 337.895 289.838 337.275 289.645 336.917C289.452 336.531 289.259 336.325 289.066 336.297H297.165C296.973 336.297 296.78 336.49 296.587 336.876C296.394 337.261 296.298 337.909 296.298 338.818V345.14C296.298 345.746 296.367 346.104 296.504 346.215C296.67 346.325 297.165 346.38 297.992 346.38H308.612C309.438 346.38 309.92 346.339 310.058 346.256C310.196 346.146 310.265 345.774 310.265 345.14V338.777C310.265 337.895 310.168 337.275 309.975 336.917C309.782 336.531 309.59 336.325 309.397 336.297H317.496C317.303 336.297 317.11 336.49 316.917 336.876C316.725 337.261 316.628 337.909 316.628 338.818V358.611C316.628 359.493 316.725 360.126 316.917 360.512C317.11 360.898 317.303 361.091 317.496 361.091H309.397C309.59 361.091 309.782 360.898 309.975 360.512C310.168 360.126 310.265 359.493 310.265 358.611V352.165C310.265 351.531 310.182 351.173 310.017 351.091C309.879 350.98 309.411 350.925 308.612 350.925H297.992C297.165 350.925 296.67 350.98 296.504 351.091C296.367 351.201 296.298 351.559 296.298 352.165V358.611C296.298 359.493 296.394 360.126 296.587 360.512C296.78 360.898 296.973 361.091 297.165 361.091H289.066ZM321.632 361.091C321.825 361.091 322.004 360.912 322.169 360.553C322.362 360.168 322.458 359.52 322.458 358.611V338.777C322.458 337.895 322.362 337.261 322.169 336.876C322.004 336.49 321.825 336.297 321.632 336.297H329.607C329.414 336.297 329.221 336.49 329.028 336.876C328.836 337.234 328.739 337.881 328.739 338.818V358.611C328.739 359.493 328.836 360.126 329.028 360.512C329.221 360.898 329.414 361.091 329.607 361.091H321.632ZM333.779 361.091C333.972 361.091 334.151 360.898 334.316 360.512C334.509 360.126 334.606 359.493 334.606 358.611V338.777C334.606 337.895 334.509 337.275 334.316 336.917C334.124 336.531 333.931 336.325 333.738 336.297H347.292C349.633 336.297 351.52 336.642 352.953 337.33C354.413 337.991 355.487 338.956 356.176 340.223C356.865 341.462 357.209 342.95 357.209 344.686C357.209 346.449 356.865 347.978 356.176 349.272C355.487 350.54 354.413 351.518 352.953 352.206C351.52 352.867 349.633 353.198 347.292 353.198H340.969V358.611C340.969 359.493 341.066 360.126 341.259 360.512C341.451 360.898 341.644 361.091 341.837 361.091H333.779ZM342.664 348.653H344.73C346.355 348.653 347.608 348.515 348.49 348.239C349.399 347.964 350.033 347.537 350.391 346.958C350.749 346.38 350.928 345.622 350.928 344.686C350.928 343.777 350.735 343.046 350.349 342.496C349.991 341.945 349.385 341.559 348.531 341.339C347.705 341.091 346.575 340.967 345.143 340.967H342.664C341.81 340.967 341.314 341.022 341.176 341.132C341.038 341.215 340.969 341.531 340.969 342.082V347.496C340.969 348.046 341.038 348.377 341.176 348.487C341.314 348.597 341.81 348.653 342.664 348.653Z" fill="#33436B"/>
<path d="M275.196 184.688C278.261 182.462 280.944 180.507 283.626 178.551C283.253 177.771 282.88 176.991 282.507 176.212C270.536 181.816 258.566 187.42 246.281 193.171C241.461 184.637 236.8 176.383 231.697 167.348C272.185 153.823 311.926 140.547 353.199 126.76C329.318 170.011 306.266 211.76 282.716 254.412C275.065 241.799 267.818 229.851 259.926 216.839C246.923 228.794 234.336 240.367 221.749 251.94C221.467 251.613 221.185 251.287 220.902 250.96C225.189 239.075 229.315 227.123 233.881 215.355C234.967 212.555 237.078 209.663 239.482 208.028C251.116 200.111 263.011 192.609 275.196 184.688Z" fill="black"/>
<path d="M228.585 200.63C226.384 203.428 223.925 205.702 222.884 208.539C219.37 218.111 216.359 227.883 212.527 239.481C190.864 201.088 170.018 164.143 148.504 126.014C164.029 126.014 178.255 125.939 192.477 126.141C193.759 126.16 195.471 127.69 196.218 128.993C208.843 150.997 221.348 173.075 233.856 195.152C234.04 195.478 233.913 195.995 233.949 196.853C232.409 197.941 230.693 199.152 228.585 200.63Z" fill="#FEBB1B"/>
<path d="M257.11 298.809C255.153 302.191 253.427 305.162 251.146 309.091C244.195 296.76 237.617 285.207 231.154 273.585C226.019 264.352 226.099 264.334 233.888 257.084C241.234 250.247 248.538 243.361 256.597 235.807C262.524 246.372 268.318 256.387 273.678 266.647C274.357 267.947 273.121 270.749 272.158 272.486C267.332 281.191 262.301 289.772 257.11 298.809Z" fill="#FEBB1B"/>
</svg>
